# xmcd CD database file
#
# Track frame offsets:
#	150
#	28435
#	48092
#	51425
#	78750
#	96177
#	121937
#	144307
#	175472
#	196660
#	207070
#	230547
#
# Disc length: 3443 seconds
#
# Revision: 2
# Processed by: cddbd v1.5.2PL0 Copyright (c) Steve Scherf et al.
# Submitted via: CDex 1.70beta2
#
DISCID=9d0d710c
DTITLE=甲斐バンド - BEATNIK TOUR in 両国国技館 [CD1]
DYEAR=1985
DGENRE=Japanese Rock
TTITLE0=野獣
TTITLE1=ランデヴー
TTITLE2=MC
TTITLE3=キラー・ストリート
TTITLE4=フェアリー（完全犯罪）
TTITLE5=ボーイッシュ・ガール
TTITLE6=悪夢
TTITLE7=ナイト・ウェイブ
TTITLE8=荒野をくだって
TTITLE9=MC
TTITLE10=BLUE LETTER
TTITLE11=ラヴ・マイナス・ゼロ
EXTD=YEAR: 1985
EXTT0=
EXTT1=
EXTT2=
EXTT3=
EXTT4=
EXTT5=
EXTT6=
EXTT7=
EXTT8=
EXTT9=
EXTT10=
EXTT11=
PLAYORDER=
